<svg xmlns:xlink="http://www.w3.org/1999/xlink" xmlns="http://www.w3.org/2000/svg" width="28" height="28" viewBox="0 0 100 100">
            <path class="c42f9wg" fill="#FFFFFF" d="M8.05 59.496c1.808 8.078 4.849 13.167 10.48 19.536 3.674 4.156 9.57 8.325 15.109 10.703 5.341 2.292 14.604 3.847 19.06 3.28.82-.104 1.572.477 1.676 1.299.105.821-.476 1.573-1.298 1.677-5.016.639-14.811-1.006-20.621-3.5-5.938-2.548-12.198-6.975-16.174-11.472-5.937-6.715-9.223-12.215-11.159-20.868-.18-.808.328-1.61 1.136-1.791.809-.181 1.61.328 1.792 1.136zM87.38 39.733c.589.095 1.104.11 2.014.075l.259-.011c4.15-.186 5.786 1.067 6.348 6.485.62 5.975-.115 11.36-1.643 17.008-1.322 4.89-4.098 10.298-9.048 16.092-5.376 6.292-12.167 11.032-18.507 13.457-3.619 1.385-6.722 2.21-9.324 2.471-.825.083-1.56-.518-1.642-1.342-.083-.825.518-1.56 1.343-1.643 2.305-.23 5.161-.991 8.551-2.288 5.877-2.248 12.251-6.697 17.298-12.604 4.653-5.446 7.224-10.455 8.433-14.926 1.44-5.325 2.13-10.376 1.555-15.916-.226-2.176-.629-3.24-1.093-3.596-.259-.198-.606-.254-1.693-.219l-.444.018c-1.27.056-1.985.046-2.886-.1-.818-.131-1.374-.901-1.241-1.72.132-.817.902-1.373 1.72-1.24zM50 28.708c5.109 0 9.676 4.82 9.83 9.587l.003.247v5.954c2.32.578 4.056 2.626 4.162 5.097l.005.24v12.834c0 2.963-2.344 5.38-5.279 5.495l-.221.005h-17c-2.963 0-5.38-2.344-5.496-5.28l-.004-.22V49.833c0-2.577 1.773-4.74 4.166-5.337v-5.954c0-5.318 4.437-9.834 9.834-9.834zm8.5 18.625h-17c-1.325 0-2.41 1.032-2.495 2.336l-.005.164v12.834c0 1.325 1.032 2.41 2.336 2.494l.164.006h17c1.325 0 2.41-1.032 2.495-2.336l.005-.164V49.833c0-1.38-1.12-2.5-2.5-2.5zm-8.5 4.23c1.438 0 2.604 1.165 2.604 2.604 0 1.068-.643 1.985-1.562 2.387v3.863h-2.084v-3.863c-.92-.402-1.562-1.32-1.562-2.387 0-1.439 1.166-2.605 2.604-2.605zM38.99 6.858c.185.808-.32 1.612-1.128 1.797-7.554 1.729-16.442 7.802-20.234 12.623-4.052 5.152-7.292 10.467-8.652 15.019-1.868 6.255-2.478 12.247-1.567 18.26.124.818-.44 1.583-1.259 1.707-.819.124-1.584-.44-1.708-1.258-.982-6.486-.328-12.915 1.66-19.568 1.493-4.999 4.902-10.59 9.168-16.015C19.466 14.09 28.93 7.622 37.193 5.731c.808-.184 1.612.32 1.797 1.128zM50 31.709c-3.65 0-6.704 3.03-6.83 6.604l-.003.229-.001 5.791h13.667v-5.791c0-3.237-3.344-6.834-6.833-6.834zm2.604-27.48l.654.004c7.355.092 8.857 1.822 8.857 8.658 0 4.313 3.437 8.107 7.475 9.308 1.35.402 2.459.49 4.035.416l1.242-.067c.263-.01.404-.007.591.008l.073.006c.848.072 1.54.407 1.895 1.242l.086.217c.22.592.239 1.012.109 2.132l-.116.918c-.277 2.103-.218 3.483.463 5.313.953 2.56 2.616 4.57 5.03 6.068.704.437.92 1.362.483 2.065-.437.704-1.362.92-2.065.484-2.974-1.847-5.073-4.383-6.26-7.57-.833-2.24-.95-4.001-.678-6.334l.144-1.14.042-.396-.49.029c-2.098.123-3.58.037-5.44-.516-5.215-1.551-9.619-6.412-9.619-12.183l-.005-.967c-.05-4.31-.615-4.674-5.937-4.694h-1.078l-1.035.009c-2.515.031-4.483.14-5.966.303l-.584.07c-.52.067-.853.128-1.025.169l-.091.024c-.791.246-1.632-.195-1.878-.986-.247-.791.195-1.632.986-1.878l.176-.05c.364-.093.96-.2 1.841-.303l.248-.028c1.89-.208 4.465-.33 7.837-.33z"></path>
        </svg>